# xmcd
#
# Track frame offsets: 
#        150
#        18720
#        38375
#        57990
#        79237
#        100100
#        118120
#        136852
#        156080
#        171542
#
# Disc length: 2600 seconds
#
# Revision: 0
# Processed by: cddbd v1.5.2PL0 Copyright (c) Steve Scherf et al.
# Submitted via: ExactAudioCopy v0.95b4
#
DISCID=7e0a260a
DTITLE=鍾漢良 (Wallace Chung) - 妳愛他嗎
DYEAR=1998
DGENRE=Pop
TTITLE0=我要你
TTITLE1=妳愛他嗎
TTITLE2=手套
TTITLE3=想你最暖
TTITLE4=等愛
TTITLE5=教壞你
TTITLE6=他不會知道我有多愛他
TTITLE7=只作朋友
TTITLE8=你
TTITLE9=貪玩的情人
EXTD=
EXTT0=
EXTT1=
EXTT2=
EXTT3=
EXTT4=
EXTT5=
EXTT6=
EXTT7=
EXTT8=
EXTT9=
PLAYORDER=
